<?xml version="1.0" encoding="utf-8"?>
<!-- Generator: Adobe Illustrator 25.2.1, SVG Export Plug-In . SVG Version: 6.00 Build 0)  -->
<svg version="1.1" id="Layer_1" xmlns="http://www.w3.org/2000/svg" xmlns:xlink="http://www.w3.org/1999/xlink" x="0px" y="0px"
	 viewBox="0 0 20 20" style="enable-background:new 0 0 20 20;" xml:space="preserve">
<path style="fill:#112950;" d="M16.06,15.22l-2.5-2.45l-0.06-0.09c-0.1-0.1-0.26-0.17-0.41-0.17c-0.16,0-0.31,0.06-0.41,0.17
	c-2.12,1.95-5.41,2.05-7.67,0.24c-2.26-1.81-2.79-4.97-1.25-7.4s4.69-3.35,7.34-2.16c2.66,1.18,4,4.11,3.15,6.84
	c-0.06,0.2-0.01,0.41,0.13,0.56s0.36,0.22,0.57,0.17c0.2-0.04,0.37-0.19,0.43-0.39c1.02-3.24-0.52-6.72-3.65-8.2
	c-3.12-1.47-6.87-0.49-8.84,2.3s-1.54,6.57,0.99,8.88s6.41,2.47,9.14,0.38l2.22,2.17c0.48,0.48,0.96,0.96,1.44,1.44
	c0.29,0.29,0.59,0.58,0.88,0.88c0.26,0.23,0.64,0.2,0.83-0.03c0.16-0.19,0.17-0.48,0.02-0.71c-0.25-0.27-0.51-0.54-0.77-0.82
	C17.11,16.28,16.58,15.75,16.06,15.22z"/>
</svg>
